<?xml version="1.0" encoding="UTF-8"?> <svg xmlns="http://www.w3.org/2000/svg" viewBox="0 0 99.98 15.59"> <defs> <style>.cls-1{fill:#fff;}</style> </defs> <title>Asset 1</title> <g id="Layer_2" data-name="Layer 2"> <g id="Layer_1-2" data-name="Layer 1"> <path class="cls-1" d="M0,.11H3.35v6H9.54v-6h3.35V15.35H9.54V9.23H3.35v6.12H0Z"></path> <path class="cls-1" d="M16.32,8.82V.11h3.35V8.73c0,2.48,1.24,3.77,3.29,3.77s3.28-1.24,3.28-3.66V.11H29.6v8.6c0,4.61-2.59,6.88-6.69,6.88S16.32,13.3,16.32,8.82Z"></path> <path class="cls-1" d="M33,.11H39c4.79,0,8.1,3.29,8.1,7.62s-3.31,7.62-8.1,7.62H33ZM39,12.32a4.35,4.35,0,0,0,4.59-4.59A4.37,4.37,0,0,0,39,3.14H36.38v9.18Z"></path> <path class="cls-1" d="M48,.11H51.6l3.16,10.32L58.18.07h2.87l3.42,10.36L67.63.11h3.5l-5.2,15.35H63l-3.44-10-3.44,10H53.21Z"></path> <path class="cls-1" d="M76.89,0H80l6.54,15.35H83l-1.39-3.42H75.17l-1.39,3.42H70.36Zm3.53,9L78.4,4,76.37,9Z"></path> <path class="cls-1" d="M90.77,9.34,84.91.11h3.92l3.64,6.12L96.17.11H100L94.12,9.27v6.08H90.77Z"></path> </g> </g> </svg> 