<?xml version="1.0" encoding="UTF-8"?> <svg xmlns="http://www.w3.org/2000/svg" width="130" height="21" viewBox="0 0 130 21" fill="none"> <path d="M0 0.915527H4.49385V8.41556H12.5186V0.915527H17.0124V20.2906H12.5186V12.4781H4.49385V20.2906H0V0.915527Z" fill="white"></path> <path d="M21.1855 11.8531V0.915527H25.6794V11.8531C25.6794 14.9781 27.2843 16.5406 29.8523 16.5406C32.4202 16.5406 34.0251 14.9781 34.0251 11.8531V0.915527H38.519V11.8531C38.519 17.7906 34.9881 20.6031 29.8523 20.6031C24.3954 20.6031 21.1855 17.4781 21.1855 11.8531Z" fill="white"></path> <path d="M43.0137 0.915527H50.7174C56.8162 0.915527 61.3101 4.97804 61.3101 10.6031C61.3101 15.9156 57.1372 20.2906 50.7174 20.2906H43.0137V0.915527ZM50.7174 16.2281C54.2483 16.2281 56.8162 13.7281 56.8162 10.2906C56.8162 6.85305 54.2483 4.35304 50.7174 4.35304H47.1865V16.2281H50.7174Z" fill="white"></path> <path d="M62.5918 0.915527H67.4066L71.5795 14.0406L76.0734 0.915527H79.9252L84.4191 14.0406L88.5919 0.915527H93.0858L86.345 20.2906H82.4931L77.9993 7.79055L73.5054 20.2906H69.6536L62.5918 0.915527Z" fill="white"></path> <path d="M100.151 0.603027H104.324L112.67 19.9781H108.176L106.25 15.6031H97.9042L95.9782 19.9781H91.4844L100.151 0.603027ZM104.645 12.1656L102.077 5.91555L99.5091 12.1656H104.645Z" fill="white"></path> <path d="M118.124 12.4781L110.42 0.915527H115.556L120.371 8.72806L125.185 0.915527H130L122.297 12.4781V20.2906H117.803V12.4781H118.124Z" fill="white"></path> </svg> 